<?xml version="1.0" encoding="utf-8"?>
<!-- Generator: Adobe Illustrator 27.5.0, SVG Export Plug-In . SVG Version: 6.00 Build 0)  -->
<svg version="1.1" id="Ñëîé_1" xmlns="http://www.w3.org/2000/svg" xmlns:xlink="http://www.w3.org/1999/xlink" x="0px" y="0px"
	 viewBox="0 0 3000 3000" style="enable-background:new 0 0 3000 3000;" xml:space="preserve">
<g>
	<path style="fill:#3E3049;" d="M1286.306,982.061c-5.138-13.167-11.956-25.671-20.604-37.137
		c-10.116-13.411-22.143-35.17-34.402-62.18c-31.45-69.289,89.092-221.261,126.415,16.993
		c11.409,45.024,52.781,88.615,7.061,112.203C1325.472,1032.218,1300.953,1019.599,1286.306,982.061z"/>
	<path style="fill:#2D8FCB;" d="M1284.522,963.619c0,0-45.989,484.658,10.021,799.156c142.244,30.322,143.018-85.251,143.018-85.251
		s-73.875-566.344-69.662-683.742C1355.313,907.059,1289.515,914.014,1284.522,963.619z"/>
	<path style="fill:#3E3049;" d="M1713.694,982.061c5.138-13.167,11.956-25.671,20.604-37.137
		c10.116-13.411,22.143-35.17,34.402-62.18c31.45-69.289-89.092-221.261-126.415,16.993c-11.409,45.024-52.781,88.615-7.061,112.203
		C1674.528,1032.218,1699.048,1019.599,1713.694,982.061z"/>
	<path style="fill:#2D8FCB;" d="M1715.478,963.619c0,0,45.99,484.658-10.021,799.156c-142.244,30.322-143.018-85.251-143.018-85.251
		s73.875-566.344,69.662-683.742C1644.687,907.059,1710.485,914.014,1715.478,963.619z"/>
	<path style="fill:#394859;" d="M1912.661,722.947h-20.54c-33.628,0-64.85,17.434-82.493,46.062l-14.994,24.331
		c-14.642,23.759-40.555,38.228-68.462,38.228h-36.684c-4.551,0-8.24,3.69-8.24,8.24s3.689,8.24,8.24,8.24h36.695
		c33.621,0,64.836-17.43,82.475-46.052l15.005-24.349c14.639-23.753,40.546-38.219,68.448-38.219h20.551
		c4.551,0,8.24-3.69,8.24-8.24C1920.901,726.636,1917.212,722.947,1912.661,722.947z"/>
	<path style="fill:#6F87AA;" d="M2048.337,758.127c-10.849-28.612-107.671-57.637-132.9-45.903
		c-18.337,20.32-22.231,43.072-22.999,49.65c-0.094,0.552-0.152,1.107-0.163,1.666c-0.009,0.125-0.014,0.208-0.014,0.208v19.47
		h19.87c14.429,6.05,35.462,9.866,58.898,9.866c23.436,0,44.469-3.816,58.898-9.866h19.87v-19.47
		C2049.798,761.825,2049.286,759.947,2048.337,758.127z"/>
	<path style="fill:#8BAED8;" d="M1971.03,753.882c-43.503,0-78.768,13.134-78.768,29.337c0,16.202,35.266,29.336,78.768,29.336
		c43.503,0,78.768-13.134,78.768-29.336C2049.798,767.017,2014.532,753.882,1971.03,753.882z"/>
	<path style="fill:#394859;" d="M1087.339,722.947h20.54c33.628,0,64.85,17.434,82.493,46.062l14.994,24.331
		c14.642,23.759,40.555,38.228,68.462,38.228h36.684c4.551,0,8.24,3.69,8.24,8.24s-3.689,8.24-8.24,8.24h-36.695
		c-33.621,0-64.836-17.43-82.475-46.052l-15.005-24.349c-14.639-23.753-40.545-38.219-68.448-38.219h-20.551
		c-4.551,0-8.24-3.69-8.24-8.24C1079.099,726.636,1082.788,722.947,1087.339,722.947z"/>
	<path style="fill:#6F87AA;" d="M951.663,758.127c10.849-28.612,107.671-57.637,132.9-45.903
		c18.337,20.32,22.232,43.072,22.999,49.65c0.094,0.552,0.153,1.107,0.163,1.666c0.009,0.125,0.014,0.208,0.014,0.208v19.47h-19.87
		c-14.429,6.05-35.462,9.866-58.898,9.866c-23.436,0-44.469-3.816-58.898-9.866h-19.87v-19.47
		C950.202,761.825,950.715,759.947,951.663,758.127z"/>
	<path style="fill:#8BAED8;" d="M1028.971,753.882c43.502,0,78.768,13.134,78.768,29.337c0,16.202-35.266,29.336-78.768,29.336
		c-43.503,0-78.768-13.134-78.768-29.336C950.202,767.017,985.468,753.882,1028.971,753.882z"/>
	<g>
		<path style="fill:#8BAED8;" d="M1607.569,1560.159c0,0,137.723-7.706,134.346,231.432c27.289,37.785,62.975,79.768,62.975,79.768
			l25.19,524.789l-34.636,59.826L1814.336,2700l-81.867-40.934l9.446-203.093l-55.103-58.252l-11.021-341.637l20.467-262.132
			c0,0,6.822-175.542-88.689-187.35C1588.415,1571.966,1607.569,1560.159,1607.569,1560.159z"/>
		<polygon style="opacity:0.3;" points="1795.444,2455.973 1830.08,2396.147 1686.813,2397.721 1741.915,2455.973 		"/>
		<path style="opacity:0.3;" d="M1741.916,2455.974l-55.103-58.252l-11.02-341.637l20.467-262.131c0,0,6.822-175.542-88.689-187.35
			c-7.8-14.104-9.204-24.369-8.179-31.647c29.336,5.472,123.323,36.196,118.408,205.029c-5.819,199.903,17.82,616.163,17.82,616.163
			l32.993,59.826l-8.04,217.144l-28.103-14.051L1741.916,2455.974z"/>
		<path style="opacity:0.3;fill:#FFFFFF;" d="M1741.915,1791.591h-88.73c0,0-16.658,104.025-15.679,101.085
			c0.98-2.94,167.384-21.317,167.384-21.317L1741.915,1791.591z"/>
	</g>
	<g>
		<path style="fill:#394859;" d="M1217.086,908.371l4.308-10.241c-39.271-16.538-89.054,11.919-91.152,13.139l5.577,9.611
			C1136.286,920.608,1182.939,893.988,1217.086,908.371z"/>
	</g>
	<path style="fill:#394859;" d="M1520.26,300h-40.521c-39.165,0-70.911,31.746-70.911,70.911v486.249h182.343V370.911
		C1591.171,331.746,1559.426,300,1520.26,300z"/>
	<path style="fill:#8BAED8;" d="M1469.377,2673.117h61.245c59.196,0,107.178-47.982,107.178-107.178v-734.934h-275.601v734.934
		C1362.199,2625.135,1410.181,2673.117,1469.377,2673.117z"/>
	<path style="opacity:0.3;" d="M1575.7,1831.005v832.073c36.641-17.035,62.099-54.068,62.099-97.139v-734.933H1575.7z"/>
	<path style="opacity:0.3;fill:#FFFFFF;" d="M1424.303,1831.005H1362.2v734.933c0,43.073,25.461,80.107,62.104,97.141V1831.005z"/>
	<path style="fill:#8BAED8;" d="M1530.622,391.069h-61.245c-59.196,0-107.178,47.982-107.178,107.178v734.934H1637.8V498.247
		C1637.8,439.051,1589.818,391.069,1530.622,391.069z"/>
	<path style="opacity:0.3;fill:#FFFFFF;" d="M1424.299,1233.182V401.109c-36.641,17.035-62.099,54.068-62.099,97.139v734.933
		H1424.299z"/>
	<path style="opacity:0.3;" d="M1575.696,1233.182h62.104V498.248c0-43.073-25.461-80.107-62.104-97.141V1233.182z"/>
	<g>
		<path style="fill:#8BAED8;" d="M1392.43,1560.159c0,0-137.723-7.706-134.346,231.432c-27.289,37.785-62.975,79.768-62.975,79.768
			l-25.19,524.789l34.636,59.826L1185.663,2700l81.867-40.934l-9.446-203.093l55.103-58.252l11.02-341.637l-20.466-262.132
			c0,0-6.822-175.542,88.689-187.35C1411.585,1571.966,1392.43,1560.159,1392.43,1560.159z"/>
		<polygon style="opacity:0.3;" points="1204.556,2455.973 1169.919,2396.147 1313.187,2397.721 1258.084,2455.973 		"/>
		<path style="opacity:0.3;" d="M1258.084,2455.974l55.103-58.252l11.021-341.637l-20.467-262.131c0,0-6.822-175.542,88.689-187.35
			c7.8-14.104,9.204-24.369,8.179-31.647c-29.336,5.472-123.323,36.196-118.408,205.029
			c5.819,199.903-17.819,616.163-17.819,616.163l-32.993,59.826l8.04,217.144l28.102-14.051L1258.084,2455.974z"/>
		<path style="opacity:0.3;fill:#FFFFFF;" d="M1258.084,1791.591h88.73c0,0,16.659,104.025,15.679,101.085
			c-0.98-2.94-167.383-21.317-167.383-21.317L1258.084,1791.591z"/>
	</g>
	<path style="fill:#394859;" d="M1303.673,2573.526c-0.692-34.98-16.586-62.975-36.143-62.975
		c-19.557,0-35.451,27.994-36.143,62.975H1303.673z"/>
	<path style="fill:#FEB913;" d="M1234.942,2573.526c5.851,21.872,18.225,36.997,32.588,36.997c14.363,0,26.737-15.125,32.588-36.997
		H1234.942z"/>
	<rect x="1264.382" y="2549.91" style="fill:#394859;" width="144.842" height="23.616"/>
	<path style="fill:#394859;" d="M1711.278,1814.192l-65.587-167.319c-14.92-38.06-51.628-63.1-92.508-63.1H1500h-53.183
		c-40.881,0-77.589,25.04-92.509,63.1l-65.587,167.319c-20.245,51.648-30.637,106.632-30.637,162.105
		c0,45.916,7.12,91.554,21.104,135.289l59.04,184.633c21.035,65.781,82.178,110.423,151.242,110.423H1500h10.529
		c69.064,0,130.207-44.642,151.243-110.423l59.04-184.633c13.984-43.735,21.104-89.372,21.104-135.289
		C1741.916,1920.824,1731.524,1865.84,1711.278,1814.192z"/>
	<path style="opacity:0.3;" d="M1711.278,1814.192l-65.587-167.319c-12.618-32.188-40.841-54.997-73.97-61.288
		c21.141,10.5,38.227,28.199,47.274,50.589l65.586,162.329c20.247,50.108,30.638,103.451,30.638,157.271
		c0,44.547-7.12,88.824-21.104,131.254l-59.041,179.127c-21.035,63.819-82.178,107.13-151.242,107.13h-10.53h-10.529
		c-40.986,0-79.103-15.341-107.783-41.081c28.554,45.526,78.932,74.438,134.479,74.438H1500h10.529
		c69.064,0,130.207-44.642,151.243-110.423l59.04-184.633c13.984-43.735,21.104-89.372,21.104-135.289
		C1741.916,1920.824,1731.524,1865.84,1711.278,1814.192z"/>
	<path style="fill:#394859;" d="M1696.327,2573.526c0.692-34.98,16.586-62.975,36.143-62.975c19.557,0,35.451,27.994,36.143,62.975
		H1696.327z"/>
	<path style="fill:#FEB913;" d="M1765.057,2573.526c-5.852,21.872-18.225,36.997-32.588,36.997s-26.737-15.125-32.588-36.997
		H1765.057z"/>
	
		<rect x="1590.776" y="2549.91" transform="matrix(-1 -1.224647e-16 1.224647e-16 -1 3326.394 5123.436)" style="fill:#394859;" width="144.842" height="23.616"/>
	<path style="fill:#394859;" d="M1256.649,565.592c-0.692,34.981-16.586,62.975-36.143,62.975
		c-19.557,0-35.451-27.994-36.143-62.975H1256.649z"/>
	<path style="fill:#FEB913;" d="M1187.919,565.592c5.852-21.872,18.225-36.997,32.588-36.997s26.737,15.126,32.588,36.997H1187.919z
		"/>
	<rect x="1217.358" y="565.592" style="fill:#394859;" width="144.842" height="23.615"/>
	<path style="fill:#394859;" d="M1743.351,565.592c0.692,34.981,16.586,62.975,36.143,62.975c19.557,0,35.451-27.994,36.143-62.975
		H1743.351z"/>
	<path style="fill:#FEB913;" d="M1812.082,565.592c-5.852-21.872-18.225-36.997-32.588-36.997
		c-14.363,0-26.736,15.126-32.588,36.997H1812.082z"/>
	
		<rect x="1637.801" y="565.592" transform="matrix(-1 -1.224647e-16 1.224647e-16 -1 3420.4429 1154.7987)" style="fill:#394859;" width="144.842" height="23.615"/>
	<path style="fill:#6F87AA;" d="M1590.722,2516.018l-65.02-24.359v-9.982c0-14.197-11.507-25.703-25.703-25.703
		c-14.195,0-25.703,11.506-25.703,25.703v9.982l-65.02,24.359c-18.186,6.813-30.236,24.194-30.236,43.614v13.895H1500h120.958
		v-13.895C1620.958,2540.212,1608.907,2522.83,1590.722,2516.018z"/>
	<path style="fill:#E83A28;" d="M1500.002,2573.525h-0.004h-98.647c0,15.65,12.687,28.338,28.339,28.338h70.308h0.004h70.308
		c15.651,0,28.339-12.688,28.339-28.338H1500.002z"/>
	<path style="fill:#394859;" d="M1613.343,595.936H1500h-113.344c-29.581,0-53.561,23.979-53.561,53.56v52.445
		c0,15.455,6.677,30.158,18.315,40.33l68.022,59.448v110.241l80.568,6.254l80.568-6.254V801.718l68.021-59.448
		c11.638-10.171,18.316-24.875,18.316-40.33v-52.445C1666.905,619.914,1642.924,595.936,1613.343,595.936z"/>
	<path style="opacity:0.3;fill:#FFFFFF;" d="M1613.343,595.936H1500h-113.344c-29.581,0-53.561,23.979-53.561,53.56v52.445
		c0,2.063,0.138,4.107,0.371,6.134c3.03-26.708,25.673-47.464,53.19-47.464H1500h113.343c27.517,0,50.159,20.756,53.189,47.464
		c0.234-2.027,0.372-4.071,0.372-6.134v-52.445C1666.905,619.914,1642.924,595.936,1613.343,595.936z"/>
	<g>
		<path style="fill:#8BAED8;" d="M1121.437,990.7l-20.907-35.449l215.99-127.38c38.802-22.881,83.117-34.973,128.155-34.973H1500
			v41.157h-55.326c-37.691,0-74.777,10.123-107.248,29.265L1121.437,990.7z"/>
	</g>
	<g>
		<path style="fill:#E83A28;" d="M1500,861.358c-120.287,0-217.799,102.092-217.799,228.03s97.512,470.771,217.799,470.771
			s217.799-344.833,217.799-470.771S1620.287,861.358,1500,861.358z"/>
		<g>
			<path style="fill:#394859;" d="M1500,1058.463c-36.65,0-66.361,29.711-66.361,66.361c0,36.649,29.712,66.36,66.361,66.36
				s66.361-29.711,66.361-66.36C1566.361,1088.174,1536.649,1058.463,1500,1058.463z"/>
			<path style="fill:#FEB913;" d="M1717.225,1107.327c-36.124-30.923-84.438-26.138-97.994-12.059
				c69.819,33.807,64.185,75.208,61.735,104.115c-2.45,28.908-51.935,34.297-54.385-14.209
				c-12.739,27.928-11.269,51.937,15.189,125.92c26.458,73.983-23.518,69.084-32.828,55.366
				c-9.309-13.72-0.979-58.795-27.437-68.595c-26.458-9.8-48.506-31.357-51.446-42.626c-13.719,45.566,19.599,45.566,18.394,93.583
				c-1.203,48.015-48.453,48.832-48.453,48.832s-47.251-0.817-48.454-48.832c-1.204-48.016,32.113-48.016,18.395-93.583
				c-2.94,11.27-24.988,32.827-51.445,42.626c-26.458,9.8-18.129,54.875-27.438,68.595c-9.309,13.718-59.284,18.617-32.827-55.366
				c26.458-73.983,27.928-97.992,15.188-125.92c-2.45,48.506-51.935,43.117-54.385,14.209
				c-2.449-28.908-8.084-70.308,61.735-104.115c-13.556-14.079-61.87-18.864-97.994,12.058
				c8.093,137.806,102.25,452.833,217.225,452.833C1614.975,1560.159,1709.132,1245.132,1717.225,1107.327z"/>
			<path style="opacity:0.6;fill:#FFFFFF;" d="M1353.331,1089.389c0-125.939,65.666-228.032,146.669-228.032
				c-120.287,0-217.799,102.093-217.799,228.032c0,125.937,97.512,470.771,217.799,470.771
				C1418.997,1560.159,1353.331,1215.326,1353.331,1089.389z"/>
			<path style="opacity:0.7;" d="M1500,861.357c81.003,0,146.67,102.093,146.67,228.032c0,125.937-65.666,470.771-146.67,470.771
				c120.288,0,217.799-344.834,217.799-470.771C1717.799,963.45,1620.288,861.357,1500,861.357z"/>
		</g>
	</g>
	<path style="fill:#8BAED8;" d="M979.665,978.603l15.854,3.966c0,0,28.519-36.124,48.421-78.205
		c33.666-10.357,68.694-3.093,92.003,4.728c-2.295,4.372-4.501,8.786-6.294,13.386c-1.782,4.572-3.155,9.261-4.413,13.983
		c-19.985-10.542-46.298-21.38-63.709-16.871c-27.449,33.295-59.659,78.986-59.659,78.986l-16.29-1.341L979.665,978.603z"/>
	<polygon style="fill:#526170;" points="1160.916,984.739 1149.372,992.911 1105.463,930.367 1117.336,896.676 1142.742,902.653 
		1150.627,917.045 1135.317,937.914 	"/>
	<polygon style="fill:#394859;" points="1009.301,1008.486 1021.085,1009.509 1091.926,959.357 1093.629,937.727 1105.908,929.033 
		1123.596,954.018 1127.751,959.887 1132.79,967.004 1136.944,972.873 1154.632,997.858 1142.352,1006.551 1121.386,1000.969 
		1050.544,1051.121 1047.593,1062.575 1035.125,1071.402 1018.498,1047.916 1013.459,1040.799 996.833,1017.313 	"/>
	<g>
		<path style="fill:#394859;" d="M1782.913,908.371l-4.308-10.241c39.271-16.538,89.054,11.919,91.152,13.139l-5.578,9.611
			C1863.714,920.608,1817.06,893.988,1782.913,908.371z"/>
	</g>
	<g>
		<path style="fill:#8BAED8;" d="M1878.563,990.7l20.907-35.449l-215.99-127.38c-38.802-22.881-83.117-34.973-128.155-34.973H1500
			v41.157h55.325c37.692,0,74.777,10.123,107.248,29.265L1878.563,990.7z"/>
	</g>
	<path style="fill:#8BAED8;" d="M2020.334,978.603l-15.854,3.966c0,0-28.519-36.124-48.422-78.205
		c-33.665-10.357-68.694-3.093-92.002,4.728c2.295,4.372,4.501,8.786,6.294,13.386c1.782,4.572,3.155,9.261,4.413,13.983
		c19.985-10.542,46.298-21.38,63.708-16.871c27.449,33.295,59.66,78.986,59.66,78.986l16.29-1.341L2020.334,978.603z"/>
	<polygon style="fill:#526170;" points="1839.083,984.739 1850.627,992.911 1894.537,930.367 1882.663,896.676 1857.257,902.653 
		1849.372,917.045 1864.683,937.914 	"/>
	<polygon style="fill:#394859;" points="1990.699,1008.486 1978.915,1009.509 1908.073,959.357 1906.371,937.727 1894.091,929.033 
		1876.403,954.018 1872.248,959.887 1867.21,967.004 1863.055,972.873 1845.367,997.858 1857.647,1006.551 1878.614,1000.969 
		1949.455,1051.121 1952.406,1062.575 1964.874,1071.402 1981.501,1047.916 1986.54,1040.799 2003.167,1017.313 	"/>
	<g>
		<ellipse style="opacity:0.3;" cx="1431.861" cy="718.184" rx="56.124" ry="38.89"/>
		<ellipse style="opacity:0.3;" cx="1568.139" cy="718.184" rx="56.125" ry="38.89"/>
	</g>
	<rect x="1469.837" y="781.962" style="fill:#232E38;" width="60.327" height="60.327"/>
	<g>
		<path style="fill:#2D8FCB;" d="M1629.8,1581.118h-258.815h-82.141v143.252c0,83.89,60.732,151.896,135.649,151.896l75.901-12.359
			l75.898,12.359c74.918,0,135.649-68.006,135.649-151.896v-143.252H1629.8z"/>
		<path style="opacity:0.3;" d="M1711.941,1724.37v-143.252h-56.114l-16.548,142.127v5.447c0,0,3.703,69.71-88.05,87.532
			c-79.061,15.357-196.565,15.418-255.364-43.634c18.004,60.243,68.769,103.676,128.628,103.676l75.901-12.359l75.898,12.359
			C1651.209,1876.265,1711.941,1808.259,1711.941,1724.37z"/>
	</g>
	<path style="fill:#394859;" d="M1980.411,1053.793c-83.163-19.532-62.12,35.109-62.12,35.109s-31.226,126.75-80.3,222.008
		c-90.561,148.715-263.044,227.919-317.554,250.029l-20.438,0.478l-20.438-0.478c-54.51-22.11-226.992-101.314-317.554-250.029
		c-49.074-95.258-80.3-222.008-80.3-222.008s21.043-54.641-62.12-35.109l-3.901,32.792c0,0,7.295,172.306,66.698,300.223
		c37.096,79.882,125.713,163.398,187.039,214.861c-3.233,72.995,17.392,207.881,214.761,205.112c5.581-0.007,26.05-0.007,31.63,0
		c197.369,2.77,217.995-132.117,214.761-205.112c61.326-51.463,149.943-134.979,187.039-214.861
		c59.402-127.917,66.698-300.223,66.698-300.223L1980.411,1053.793z"/>
	<path style="opacity:0.3;" d="M1050.138,1065.217c0,0,9.508-2.875,26.66-7.993c12.673,11.437,4.911,31.679,4.911,31.679
		s31.226,126.75,80.3,222.008c90.562,148.715,263.044,227.919,317.554,250.029l20.438,0.478l20.438-0.478
		c29.921-12.137,95.395-41.522,163.348-90.119c0,0.005,0,0.009,0,0.014c2.288,170.505-72.805,213.897-212.461,201.749
		c-149.074-22.303-138.015-158.905-138.015-158.905s-92.236-47.149-171.301-137.681
		C1082.942,1285.466,1050.138,1065.217,1050.138,1065.217z M1980.411,1053.793c-4.925-1.157-9.457-2.035-13.677-2.698
		c-6.458,53.808-40.496,305.476-121.032,389.763c-90.376,94.586-141.292,125.664-141.292,125.664s-13.779,158.094-138.635,181.064
		c-91.231,16.785-197.989,10.438-270.252-24.486c27.738,46.978,82.716,85.168,188.661,83.681c5.581-0.007,26.05-0.007,31.63,0
		c197.369,2.77,217.995-132.117,214.761-205.112c61.326-51.463,149.943-134.979,187.039-214.861
		c59.402-127.917,66.698-300.223,66.698-300.223L1980.411,1053.793z"/>
	<g>
		<path style="fill:#EDA280;" d="M1629.075,1367.22c-22.105-31.16-56.352-51.553-93.942-58.388l-0.913-0.166
			c0,0-4.473-8.448-14.413-15.408c-1.988-9.939-15.904-11.43-15.904-11.43s-13.916,1.491-15.904,11.43
			c-9.94,6.96-14.413,15.408-14.413,15.408l-0.913,0.166c-37.59,6.835-71.837,27.228-93.942,58.388
			c-20.514,28.92-34.465,71.312-20.946,131.302c53.676,100.392,146.119,17.892,146.119,17.892s92.442,82.5,146.119-17.892
			C1663.54,1438.532,1649.589,1396.141,1629.075,1367.22z"/>
		<path style="opacity:0.3;" d="M1572.825,1320.837c19.142,27.336,35.119,69.403,20.727,127.484
			c-9.441,38.103-2.169,70.081,12.704,94.627c15.616-6.659,30.819-20.212,43.765-44.426c13.518-59.99-0.434-102.382-20.946-131.302
			C1614.674,1346.92,1595.1,1331.226,1572.825,1320.837z"/>
		<path style="fill:#394859;" d="M1627.732,1312.04l-92.59-3.208c0,0-6.425,12.004-31.234,12.004
			c-24.81,0-31.235-12.004-31.235-12.004l-92.59,3.208c-52.07,69.343-27.653,183.827-27.653,183.827l18.645-5.466
			c0,0-19.818-78.371-3.687-104.167c30.544-51.019,136.521-44.468,136.521-44.468s105.977-6.552,136.521,44.468
			c16.131,25.796-3.687,104.167-3.687,104.167l18.645,5.466C1655.385,1495.867,1679.802,1381.382,1627.732,1312.04z"/>
		<path style="fill:#95453E;" d="M1641.573,1448.821c-24.602-86.478-99.898-88.715-99.898-88.715h-75.544
			c0,0-75.296,2.237-99.897,88.715c-32.802,49.949-21.645,95.425-13.804,131.209c3.367-18.638,13.059-31.725,13.059-31.725
			s6.076,74.218,62.678,112.984c-6.766-27.584-9.747-61.877-9.747-61.877s11.183,35.039,65.604,61.877
			c29.075,11.183,61.877-8.2,91.697,5.964c0.745-12.673-7.455-28.329-28.329-35.039c23.111-7.455,38.766,11.183,75.296-2.237
			c-0.074-0.102-0.148-0.205-0.223-0.306c-11.005-15.02-11.919-35.139-1.372-50.484l21.226-30.883c0,0,9.692,13.087,13.059,31.725
			C1663.217,1544.245,1674.375,1498.77,1641.573,1448.821z"/>
		<path style="opacity:0.3;" d="M1642.317,1548.304c0,0,9.691,13.087,13.058,31.725c7.842-35.784,18.998-81.26-13.804-131.209
			c-24.601-86.478-99.896-88.715-99.896-88.715h-12.515c28.067,13.757,70.17,44.486,75.495,106.384
			c8.075,92.861-96.898,114.057-136.263,116.076c39.365-15.14,52.487-41.384,52.487-41.384s-108.543,53.372-172.77-52.035
			c-8.745,34.047-1.352,65.001,4.319,90.882c3.367-18.638,13.059-31.725,13.059-31.725s6.076,74.218,62.679,112.985
			c-6.766-27.584-9.749-61.877-9.749-61.877s11.184,35.038,65.604,61.877c29.076,11.182,61.878-8.201,91.698,5.963
			c0.745-12.673-7.456-28.329-28.329-35.038c23.111-7.456,38.765,11.182,75.296-2.237c-0.075-0.103-0.148-0.204-0.223-0.306
			c-11.004-15.02-11.919-35.139-1.372-50.484L1642.317,1548.304z"/>
		<path style="opacity:0.3;fill:#FFFFFF;" d="M1484.004,1395.776c-49.352,0-89.36,28.031-89.36,62.61
			c0,34.578,40.008,62.609,89.36,62.609c49.354,0,89.361-28.031,89.361-62.609
			C1573.366,1423.807,1533.358,1395.776,1484.004,1395.776z"/>
	</g>
	<path style="fill:#EDA280;" d="M1878.614,1000.969c0,0,20.789,5.824,30.183-4.183c11.269-12.004,11.269-29.153-0.723-37.43
		c5.868-6.911,38.274-18.024,64.663,9.747c32.611,34.32,11.576,117.482,11.576,117.482c-22.86-21.492-47.277-8.073-66.021,2.317
		C1880.011,1050.353,1871.176,1028.962,1878.614,1000.969z"/>
	<path style="fill:#EDA280;" d="M1121.386,1000.969c0,0-20.789,5.824-30.183-4.183c-11.269-12.004-11.269-29.153,0.723-37.43
		c-5.868-6.911-38.274-18.024-64.663,9.747c-32.612,34.32-11.576,117.482-11.576,117.482c22.86-21.492,47.277-8.073,66.021,2.317
		C1119.989,1050.353,1128.824,1028.962,1121.386,1000.969z"/>
</g>
</svg>
